<?xml version="1.0" encoding="UTF-8"?>
<svg id="Layer_1" data-name="Layer 1" xmlns="http://www.w3.org/2000/svg" viewBox="0 0 801.5 599.7">
  <defs>
    <style>
      .cls-1 {
        fill: #fff;
      }

      .cls-2 {
        fill: #ee2d2c;
        stroke-miterlimit: 10;
        stroke-width: 5px;
      }

      .cls-2, .cls-3 {
        stroke: #ee2d2c;
      }

      .cls-4, .cls-5 {
        stroke: #000;
      }

      .cls-4, .cls-5, .cls-6, .cls-3 {
        stroke-miterlimit: 10;
      }

      .cls-4, .cls-3 {
        fill: none;
      }

      .cls-7 {
        fill: gray;
      }

      .cls-6 {
        stroke: red;
        stroke-width: 3px;
      }

      .cls-3 {
        stroke-width: 5px;
      }
    </style>
  </defs>
  <g id="Layer_1-2" data-name="Layer 1">
    <ellipse class="cls-3" cx="574" cy="364.2" rx="225" ry="233"/>
    <ellipse class="cls-2" cx="573.49" cy="363.19" rx="147.5" ry="155" transform="translate(-25.91 44.57) rotate(-4.35)"/>
    <rect class="cls-1" x="369.67" y="309.28" width="412.18" height="104.8" transform="translate(-85.65 204.04) rotate(-18.73)"/>
  </g>
  <g id="Layer_2" data-name="Layer 2">
    <path class="cls-4" d="M390.56,396.78l17.85,51.42,187.06-51.59,49.19-11.07,16.98-.46s29.51,12.54,47.85,4.99l-42.78-126.66s-24.14,14.7-32.65,31.71l-16.18,12.14-46.1,20.51-181.21,69.02Z"/>
    <path class="cls-4" d="M633.94,295.2l27.58,89.97-27.58-89.97Z"/>
    <line class="cls-4" x1="617.87" y1="307.26" x2="644.55" y2="385.53"/>
    <line class="cls-4" x1="571.77" y1="327.77" x2="595.37" y2="396.6"/>
    <path class="cls-4" d="M556.92,357.2s14.31,4.96,8.06,24.14l-51.42,17.85s-21.43-8.54-9.35-25.91l52.72-16.08Z"/>
    <path class="cls-4" d="M646.65,336.63c6.33-7.39,19.95-73.23,19.95-73.23,0,0,3.14-8.48,16.98-7.11l42.72,128.87s-3.55,9.34-17.01,4.89l-42.78-126.66"/>
  </g>
  <path class="cls-5" d="M726.39,385.17c64.48-32.58,31.44-91.58,31.44-91.58-20.54-48.32-74.17-37.19-74.17-37.19l42.73,128.77Z"/>
  <path class="cls-5" d="M666.68,263.51l42.78,126.66s-8.76,9.11-47.85-4.99l-27.58-89.97c-.1-.01,10.49-19.28,32.65-31.71Z"/>
  <g>
    <path class="cls-6" d="M440,198.9l12.5,10.7-.6,.6c-.8-.3-1.3-.5-1.7-.7-2.3-1-4.1-1.6-5.3-2-2.2-.7-4.5-.9-7-.7-1.9,.2-3.6,.5-5,1.3-1.4,.7-2.7,1.7-4,3.1-1.8,2.1-3,4.2-3.5,6.6-.4,2-.4,4.3,0,6.7,.4,2.5,1.2,4.9,2.5,7.3,1.7,3.4,4.2,6.6,7.6,9.7,2.9,2.6,5.8,4.6,8.6,5.9,2.9,1.3,5.8,2,8.6,2.1,5.1,.1,9.6-1.9,13.3-6.1,1.8-2.1,3.2-4.3,4-6.5,.8-2.3,.9-4.5,.4-6.5-.6-2.4-1.9-5-4.1-7.8l.7-.6c2.6,3,4.2,5.8,4.8,8.5,.6,2.7,.4,5.4-.7,8.2-1,2.8-2.8,5.6-5.2,8.3-2.2,2.5-4.9,4.6-7.6,6.2-4.6,2.5-9.2,3.5-14.3,2.6-5-.7-9.7-3.1-14-7.1-3.3-3-5.8-6.4-7.5-10.1-1.7-3.7-2.4-7.5-2.2-11.2,.2-2.8,.9-5.7,2.3-8.7,1.3-3,3.1-5.7,5.2-7.9,2-2.2,4.6-4.2,7.5-5.9l2.8-1.6c.6-.3,1-.6,1.3-.9,.4-.5,.6-1,.5-1.6-.1-.3-.2-.7-.4-1.3l.5-.6Z"/>
    <path class="cls-6" d="M503.4,212.4h.8c.7,2.6-.3,4.9-3,6.5-1.5,.9-2.9,1.4-4.3,1.2-.9,0-2.2-.5-3.6-1.2-.6,2.2-1.1,3.6-1.6,4.5-.9,1.6-2.2,3-3.9,4.1-2.3,1.4-4.4,2-6.5,1.9-2.1-.2-3.7-1.3-4.8-3.1-1.1-1.7-1.5-3.5-1.1-5.3,.2-1.1,.6-2,1.1-2.9,.6-.9,1.5-2.1,2.7-3.5,1.5-1.6,2.6-2.9,3.3-3.8,.7-.9,1.1-1.7,1.5-2.5,.4-.9,.4-1.7,.3-2.5-.2-.8-.6-1.8-1.3-2.9-1.6-2.4-3.2-3.9-4.8-4.3-.8-.3-1.6-.4-2.4-.2-.9,.1-1.6,.4-2.3,.9-.8,.5-1.5,1.3-1.8,2.2s-.5,1.8-.3,2.7l.4,2.3c.2,1.3-.3,2.2-1.2,2.9-.7,.5-1.5,.6-2.2,.4-.7-.2-1.4-.6-1.9-1.2-.7-1.1-.5-2.4,.5-4.1,.6-.9,1.4-1.9,2.4-2.8,1-1,2.1-1.9,3.2-2.6,1.3-.9,2.7-1.6,4.3-2.1,1.6-.5,3-.9,4.3-1,1.9-.1,3.3,.3,4.4,1.4,.6,.5,1.3,1.5,2.3,3l7.4,11.4c1.2,1.9,2.2,3.2,2.8,3.8,1.3,1.2,2.6,1.4,3.9,.5,.6-.4,1.1-.8,1.3-1.3-.1-.7,.1-1.5,.1-2.4Zm-18.1-5.5c-.6,1.6-1.2,3.3-2,4.8-1,1.8-1.6,3.1-1.9,3.8-.3,.8-.6,1.6-.6,2.5-.2,1.8,.2,3.6,1.3,5.1,.9,1.4,2,2.2,3.3,2.6,1.4,.4,2.5,.2,3.7-.5,1-.7,1.8-1.6,2.3-2.8s.6-2.5,.4-3.8c-.3-1.8-1.2-4-2.9-6.6l-3.6-5.1Z"/>
    <path class="cls-6" d="M502.3,182.6c.9,1.3,1.5,2.4,1.9,3.6l.2,.6c1.8-3.9,4.6-6.6,8.6-8.1,2.9-1.1,5.5-1.3,7.9-.6,2.2,.7,3.9,2.3,4.8,4.8l5.4,14.6c.5,1.6,1.1,2.7,1.6,3.3s1,1.1,1.7,1.4c.9,.4,2.3,.4,4.1,0l.2,.7-15.2,5.7-.2-.7c1.3-.7,2.2-1.3,2.7-1.9,.5-.6,.8-1.4,.8-2.3,0-.6-.1-1.5-.3-2.6-.3-1.1-.8-2.7-1.6-4.7l-2.9-7.2c-1-2.5-1.7-4.3-2.3-5.4s-1.3-1.9-2-2.4c-.9-.6-1.9-.9-3-1s-2.3,.1-3.6,.5c-1.3,.4-2.4,1.1-3.3,2.1-.9,.9-1.5,2-1.8,3.1-.4,1.2-.4,2.4-.2,3.6s.9,3.2,1.8,5.9l2.5,6.8,1,2.5c.5,1.6,1.1,2.7,1.6,3.3s1,1.1,1.7,1.4c.9,.4,2.3,.4,4.1,0l.2,.7-15.2,5.7-.2-.7c1.3-.7,2.2-1.3,2.7-1.9s.8-1.3,.8-2.3c0-.6-.1-1.5-.3-2.5-.3-1.1-.8-2.7-1.6-4.7l-3.2-8.4c-.9-2.3-1.6-4-2-4.8-.4-1-1-1.5-1.6-2s-1.3-.8-2-.9-1.5,.1-2.6,.3l-.2-.7,9-4.8Z"/>
    <path class="cls-6" d="M564.2,193l.7,.2c-.5,2.7-1.5,4.7-3.1,6.1s-3.9,2.3-6.9,2.7c-4.9,.7-8.9-.3-12.1-2.8-3.2-2.5-5-5.9-5.6-10.3-.3-2.1-.2-4.3,.2-6.5,.5-2.2,1.3-4.1,2.4-5.8,1.3-1.9,2.9-3.4,5-4.7,2-1.2,4.3-2,6.9-2.3,3.5-.5,6.4-.1,8.6,1.3,1.4,.8,2.2,1.8,2.2,3,.1,.7-.1,1.5-.5,2.1s-1,.9-1.8,1c-1.6,.2-2.9-.8-4-3-.5-1.1-.9-1.7-1.1-2-.2-.4-.6-.7-1.1-.9-.8-.5-1.8-.6-2.9-.4-1.5,.2-2.7,.8-3.8,1.7-.9,.9-1.8,1.8-2.3,3-.6,1.2-1.1,2.6-1.4,4.2-.6,2.6-.6,5.1-.3,7.4,.3,2.1,1,4.2,2,6.2,1.1,1.9,2.3,3.5,3.9,4.7,2.4,1.9,5,2.6,7.8,2.2,2.3-.3,4.2-1.3,5.5-3,.7-.9,1.3-2.3,1.7-4.1Z"/>
    <path class="cls-6" d="M575.7,180.1c-.2,1.2-.3,2.1-.3,2.6-.2,2.2,0,4.2,.5,6.3,.5,2,1.2,3.8,2.2,5.2,1,1.4,2.3,2.6,3.9,3.5,1.5,.9,3.3,1.4,5,1.5,1.4,.1,2.6-.1,3.8-.4,1.2-.3,2.3-.9,3.1-1.6,1-.8,1.8-2.2,2.5-3.9l.8,.3c-.8,2.8-2.3,4.9-4.5,6.2s-5,1.8-8.5,1.7c-3-.2-5.6-.9-7.6-1.9-2.1-1-3.8-2.7-5.2-4.8-1.9-2.9-2.7-6.4-2.4-10.4,.3-5.5,2.6-9.7,6.8-12.6,3-2.1,6.4-3,10-2.7,1.9,.1,3.7,.6,5.3,1.4s3,1.9,4,3.3c1.6,2.2,2.4,4.8,2.1,7.9l-21.5-1.6Zm16.1-.4c0-2.4-.4-4.4-1-5.7-.5-1.3-1.4-2.3-2.5-3-1-.8-2.2-1.2-3.4-1.3-2.2-.2-4,.7-5.7,2.4-1.7,1.7-2.8,3.9-3.3,6.6l15.9,1Z"/>
    <path class="cls-6" d="M610,153.2l10.6,1-9.2,40-.6,2.7c-.3,1.7-.6,2.8-.5,3.6,0,.8,.3,1.5,.7,2.1,.5,.8,1.6,1.5,3.3,2.3l-.2,.7-15.8-3.6,.2-.7c1.5,.2,2.6,.1,3.3-.1,.7-.2,1.3-.7,1.9-1.4,.4-.5,.8-1.3,1.1-2.4,.3-1.1,.8-2.7,1.3-4.7l6.4-28.1c.5-2.4,.9-4.2,1-5.2s0-1.9-.2-2.6c-.3-.8-.7-1.3-1.2-1.8-.5-.4-1.3-.8-2.4-1.1l.3-.7Z"/>
    <path class="cls-6" d="M625.1,569.5c1.3-.5,2.2-1.2,2.9-1.8,.7-.6,1.2-1.3,1.6-2.3,.3-.7,.5-1.4,.5-2.1s-.1-1.5-.4-2.4c-.3-1.2-.8-2.7-1.3-4.3l-9.8-25.3c-.9-2.3-1.7-4.1-2.5-5.1-.7-1.1-1.6-1.8-2.5-2.1-1.7-.8-3.8-.7-6.1,.1l-.3-.8,21.9-8.5,.3,.8c-1.4,.6-2.2,1.2-3,1.8-.7,.7-1.2,1.4-1.6,2.3-.4,1-.6,2.2-.4,3.3,.2,1.2,.7,3.1,1.6,5.3l11.8,30.6,1.7-48.3,.7-.2,33.4,33.9-11.6-29.9c-.9-2.3-1.7-4.1-2.4-5-.7-1-1.6-1.8-2.5-2.2-.9-.5-1.8-.6-2.8-.6-.9,0-2,.2-3.4,.7l-.3-.8,15.9-6.1,.3,.8c-1.3,.5-2.2,1.2-2.9,1.8-.7,.6-1.2,1.4-1.6,2.3-.4,1-.6,2.2-.4,3.3,.2,1.3,.7,3.1,1.6,5.3l9.8,25.3c.4,1.1,.8,2,1.2,3,.8,1.6,1.5,2.8,2.3,3.4,1,.9,2.1,1.4,3.3,1.4,1.2,.2,2.6-.1,4.3-.6l.3,.8-14.9,5.8-29.2-30.9-1.3,42.6-14.1,5.4-.1-.7Z"/>
    <path class="cls-6" d="M600.8,541.4c0-1.2,.1-2.1,0-2.6-.2-2.1-.5-4.2-1.3-6.2-.7-2-1.7-3.6-2.8-4.9-1.2-1.2-2.6-2.3-4.2-3-1.7-.7-3.4-.9-5.2-.9-1.3,.1-2.6,.3-3.7,.8-1.2,.5-2.1,1.2-2.9,2-.8,.9-1.5,2.3-2.1,4.2l-.7-.2c.5-2.9,1.7-5.1,3.7-6.7s4.8-2.5,8.3-2.7c3-.1,5.6,.2,7.9,1,2.3,.8,4.1,2.3,5.7,4.1,2.2,2.7,3.5,6,3.6,10,.3,5.5-1.4,10-5.2,13.3-2.7,2.5-5.9,3.8-9.6,3.9-2,.1-3.8-.1-5.5-.8-1.8-.6-3.2-1.6-4.4-2.8-1.9-2-3-4.5-3.1-7.6l21.5-.9Zm-15.9,2.3c.3,2.4,.9,4.3,1.7,5.6,.7,1.2,1.7,2.1,2.8,2.7s2.3,.9,3.6,.9c2.1-.1,3.9-1.1,5.4-3s2.3-4.2,2.4-7l-15.9,.8Z"/>
  </g>
  <polygon class="cls-7" points="571.77 327.77 595.37 396.6 408.31 448.19 390.56 396.78 571.77 327.77"/>
  <path class="cls-7" d="M683.67,256.3s-13.75-2.87-16.98,7.11l42.78,126.66s12.61,5.66,17.01-4.89l-42.82-128.88Z"/>
  <polygon class="cls-7" points="633.94 295.2 661.53 385.07 644.55 385.53 617.87 307.26 633.94 295.2"/>
</svg>