<?xml version="1.0" standalone="no"?>
<!DOCTYPE svg PUBLIC "-//W3C//DTD SVG 20010904//EN"
 "http://www.w3.org/TR/2001/REC-SVG-20010904/DTD/svg10.dtd">
<svg version="1.0" xmlns="http://www.w3.org/2000/svg"
 width="50.000000pt" height="50.000000pt" viewBox="0 0 316.000000 316.000000"
 preserveAspectRatio="xMidYMid meet">

<g transform="translate(0.000000,316.000000) scale(0.100000,-0.100000)"
fill="#000000" stroke="none">
<path d="M1415 2904 c-175 -136 -369 -270 -482 -330 l-72 -39 -3 -110 -3 -109
-111 -66 -112 -65 2 -43 1 -44 -87 -49 c-83 -48 -87 -51 -78 -75 6 -14 10 -31
10 -39 0 -8 -40 -35 -90 -62 -49 -26 -90 -53 -90 -60 0 -17 31 -95 86 -214 25
-55 44 -102 42 -103 -1 -1 -25 -15 -51 -30 -54 -31 -54 -25 -5 -141 185 -441
589 -870 1100 -1169 53 -31 102 -56 108 -56 20 0 236 132 350 213 354 252 642
573 804 895 32 63 96 215 96 227 0 2 -21 16 -47 31 -27 15 -50 29 -51 30 -2 1
17 48 42 103 55 119 86 197 86 214 0 7 -41 34 -90 60 -50 27 -90 54 -90 62 0
8 4 25 10 39 9 24 5 27 -78 75 l-87 49 1 44 2 43 -112 65 -111 66 -3 109 -3
110 -72 39 c-111 59 -305 192 -484 330 -90 70 -164 126 -165 125 -2 0 -75 -57
-163 -125z m180 67 c11 -19 286 -222 402 -298 66 -43 154 -96 197 -118 l78
-40 -6 -475 c-5 -489 -6 -499 -49 -616 -48 -132 -136 -255 -291 -409 -72 -72
-179 -168 -238 -214 l-108 -83 -107 84 c-146 112 -357 324 -423 422 -29 44
-68 111 -85 150 -65 139 -65 145 -71 666 l-6 475 78 40 c43 22 130 74 193 116
117 76 395 281 406 299 8 13 22 13 30 1z m-742 -968 l-2 -268 -35 -22 c-32
-21 -35 -21 -40 -5 -42 144 -106 411 -106 446 0 11 159 113 180 115 3 1 4
-119 3 -266z m1547 216 c50 -28 90 -58 90 -65 0 -35 -64 -302 -106 -446 -5
-16 -8 -16 -40 5 l-35 22 -2 268 c-1 147 -1 267 1 267 1 0 43 -23 92 -51z
m-1755 -241 c10 -40 33 -124 51 -185 19 -62 34 -117 34 -121 0 -9 -99 -66
-105 -60 -6 6 -93 253 -110 313 -10 32 -14 61 -9 62 5 2 32 16 59 32 28 16 53
29 56 30 4 1 15 -32 24 -71z m2009 3 c3 -5 -3 -40 -15 -78 -21 -69 -99 -285
-105 -291 -5 -6 -104 51 -104 60 0 4 15 59 34 121 18 61 41 144 51 184 l17 72
58 -29 c32 -16 61 -34 64 -39z m-2139 -231 c23 -63 47 -127 53 -142 11 -25 9
-28 -45 -58 -30 -17 -56 -30 -58 -28 -5 5 -82 180 -103 233 l-20 50 57 32 c31
18 60 32 64 30 5 -1 28 -54 52 -117z m2245 88 l58 -32 -20 -50 c-21 -54 -98
-229 -103 -234 -2 -2 -28 11 -59 28 l-55 31 20 52 c17 43 65 172 84 225 6 17
10 16 75 -20z m-1975 -398 c27 -53 31 -70 15 -70 -5 0 -19 18 -30 40 -11 22
-22 40 -25 40 -2 0 -20 -8 -40 -17 -39 -19 -42 -30 -20 -74 9 -16 13 -35 9
-41 -4 -6 -17 8 -31 35 l-23 46 -52 -24 c-38 -18 -55 -21 -63 -13 -7 7 -6 12
3 15 7 3 61 29 120 58 59 30 108 54 109 54 2 1 14 -21 28 -49z m1616 -18 c-12
-23 -21 -44 -21 -46 0 -6 67 -36 79 -36 4 0 17 21 30 46 15 32 25 44 32 37 7
-7 4 -24 -10 -51 -12 -23 -21 -44 -21 -46 0 -5 75 -46 84 -46 2 0 12 20 22 45
9 25 23 45 30 45 18 0 17 -5 -14 -71 l-27 -56 -123 58 -123 58 31 62 c21 41
35 58 42 51 6 -6 3 -23 -11 -50z m-1534 -148 c2 -5 -33 -57 -78 -115 -99 -128
-95 -124 -102 -105 -4 9 5 28 19 46 28 33 28 39 -10 98 -25 40 -25 40 -67 31
-32 -8 -44 -7 -50 3 -10 15 -17 13 123 38 111 20 159 21 165 4z m1546 -16 c14
-17 17 -32 13 -61 l-6 -38 61 7 c50 6 61 4 57 -7 -3 -9 -29 -16 -79 -21 -41
-3 -75 -5 -77 -4 -1 2 4 16 13 32 20 38 19 50 -5 74 -30 30 -65 25 -94 -13
-15 -19 -26 -36 -26 -40 0 -3 45 -34 100 -69 55 -35 98 -67 96 -73 -6 -16 -17
-10 -130 61 l-106 67 21 36 c37 62 67 84 108 77 20 -3 44 -16 54 -28z m-1465
-110 c-8 -24 -209 -161 -220 -150 -6 6 25 35 94 85 99 73 134 91 126 65z
m1357 -104 c83 -63 108 -91 79 -88 -14 2 -204 144 -204 154 0 13 13 20 24 11
6 -5 52 -39 101 -77z m-1287 17 c42 -55 43 -101 5 -131 -27 -21 -64 -23 -105
-6 -13 6 -18 -2 -29 -48 -7 -31 -16 -56 -21 -56 -16 0 -13 32 8 108 l15 53 30
-25 c17 -15 37 -26 45 -26 16 0 64 44 64 58 0 13 -43 75 -55 78 -5 2 -50 -30
-100 -71 -60 -50 -93 -71 -99 -65 -7 7 3 21 29 43 22 17 67 55 100 84 33 29
65 51 70 49 6 -1 25 -22 43 -45z m1198 -57 c68 -33 100 -112 70 -176 -9 -19
-32 -50 -51 -68 l-34 -33 -95 88 c-53 48 -96 90 -96 94 0 11 84 93 105 102 32
12 64 10 101 -7z m-1056 -99 c32 -32 41 -48 33 -56 -8 -8 -19 -1 -39 25 -16
20 -34 36 -40 36 -5 0 -23 -14 -39 -30 l-29 -30 38 -39 c50 -51 29 -68 -23
-17 l-37 36 -32 -32 -32 -32 36 -37 c22 -22 33 -42 29 -49 -5 -8 -23 4 -56 36
l-49 48 92 93 c51 51 95 93 98 93 3 0 26 -20 50 -45z m749 -134 c21 -13 5 -29
-24 -23 -49 9 -73 -39 -35 -73 18 -16 22 -16 60 -1 22 9 47 16 56 16 24 0 74
-56 74 -83 0 -39 -36 -77 -73 -77 -39 0 -62 14 -52 30 5 8 10 9 18 1 16 -16
38 -14 59 6 24 21 23 55 -2 78 -17 16 -25 17 -59 7 -79 -24 -121 -5 -121 55 0
55 56 91 99 64z m-508 -72 c23 -12 41 -52 33 -74 -9 -23 -24 -18 -24 9 0 46
-60 62 -84 23 -9 -14 -6 -26 12 -57 29 -50 28 -85 -3 -115 -56 -57 -148 -6
-129 71 9 35 30 24 26 -14 -4 -40 34 -70 67 -52 40 21 44 46 16 94 -29 50 -26
87 8 111 25 18 51 19 78 4z m408 -154 c18 -139 18 -150 3 -162 -9 -7 -20 -13
-23 -13 -4 0 -38 41 -75 92 l-69 92 -3 -139 c-2 -133 -7 -154 -34 -155 -5 0
-8 74 -8 165 0 152 1 165 19 175 11 5 22 10 24 10 3 0 35 -41 72 -90 37 -50
69 -89 71 -87 2 1 -3 59 -11 127 -12 97 -12 126 -3 131 7 5 14 7 15 5 2 -2 12
-70 22 -151z m-261 53 c8 -8 12 -62 12 -175 0 -161 0 -163 -20 -151 -16 10
-20 24 -20 63 0 49 -1 51 -50 83 -27 17 -52 32 -56 32 -3 0 -20 -11 -37 -24
-27 -20 -35 -22 -49 -12 -15 11 -5 23 85 104 56 50 107 91 113 92 5 0 15 -5
22 -12z"/>
<path d="M1200 2674 c-36 -24 -111 -72 -168 -107 l-103 -62 3 -450 3 -450 33
-96 c47 -142 166 -325 281 -433 l31 -30 0 837 c0 460 -3 837 -7 836 -5 0 -37
-20 -73 -45z"/>
<path d="M1880 1883 l0 -837 31 30 c114 108 230 285 280 430 l34 99 3 450 3
450 -58 34 c-32 19 -109 67 -171 108 -62 40 -115 73 -118 73 -2 0 -4 -377 -4
-837z"/>
<path d="M1309 2695 c-4 -3 22 -94 57 -203 l63 -197 42 0 43 0 28 115 c16 63
31 122 34 130 3 8 16 -25 29 -75 49 -194 40 -177 88 -173 l41 3 57 185 c32
102 58 193 58 203 1 13 -7 17 -39 17 -37 0 -40 -2 -49 -37 -42 -153 -70 -236
-74 -223 -3 8 -20 70 -38 138 l-32 122 -38 0 -37 0 -33 -135 c-18 -74 -36
-132 -39 -129 -3 3 -21 63 -41 132 l-36 127 -39 3 c-22 2 -42 0 -45 -3z"/>
<path d="M1389 2213 c10 -27 42 -113 71 -193 29 -80 58 -151 63 -158 7 -8 28
-12 59 -10 l50 3 74 195 c40 107 74 199 74 203 0 4 -23 7 -51 5 l-52 -3 -44
-125 c-24 -69 -47 -132 -50 -140 -3 -8 -20 30 -39 85 -19 55 -41 119 -50 143
l-16 42 -54 0 -54 0 19 -47z"/>
<path d="M1464 1811 c-100 -45 -114 -150 -26 -195 15 -7 59 -19 97 -25 111
-19 135 -29 135 -56 0 -33 -27 -45 -97 -45 -40 0 -68 6 -91 20 -42 26 -46 25
-88 -6 l-34 -26 24 -19 c69 -54 235 -71 313 -31 55 28 83 66 83 111 0 71 -44
104 -162 121 -94 14 -128 28 -128 51 0 41 103 53 177 20 l41 -19 28 29 c32 34
31 35 -41 69 -54 26 -174 27 -231 1z"/>
<path d="M1458 1370 c-98 -52 -105 -157 -12 -196 18 -8 65 -18 103 -24 85 -12
121 -27 121 -51 0 -53 -138 -67 -200 -20 l-30 22 -35 -27 c-20 -15 -34 -32
-32 -38 2 -6 23 -22 48 -36 34 -19 62 -25 132 -28 141 -7 214 32 224 120 9 77
-42 116 -172 133 -80 11 -115 24 -115 45 0 11 9 24 19 30 32 17 118 12 160 -9
l38 -20 27 28 c14 15 26 30 26 35 0 4 -24 18 -52 31 -69 32 -193 35 -250 5z"/>
<path d="M750 1253 c-40 -7 -44 -19 -20 -58 l23 -37 19 23 c10 13 28 36 39 52
l20 27 -28 -1 c-15 -1 -39 -4 -53 -6z"/>
<path d="M2103 970 c-17 -10 -37 -29 -44 -41 -11 -21 -6 -28 62 -91 41 -37 79
-67 84 -67 6 0 22 16 38 36 46 61 35 122 -30 165 -36 23 -70 23 -110 -2z"/>
<path d="M1478 521 c-21 -18 -38 -36 -38 -40 0 -9 71 -53 76 -48 3 3 4 31 2
63 l-3 58 -37 -33z"/>
</g>
</svg>
